<svg id="visual" viewBox="0 0 900 600" width="900" height="600" xmlns="http://www.w3.org/2000/svg" xmlns:xlink="http://www.w3.org/1999/xlink" version="1.1"><rect x="0" y="0" width="900" height="600" fill="#6600FF"></rect><g transform="translate(442.89341465770525 287.988795218251)"><path d="M78.7 -89.3C101.7 -74.5 119.8 -49.4 122.1 -23.4C124.4 2.5 110.9 29.4 96.5 56.9C82.1 84.5 66.7 112.7 42.6 124.8C18.6 136.9 -14.1 132.8 -39.9 119.2C-65.6 105.7 -84.3 82.6 -95.6 57.8C-106.8 33 -110.5 6.4 -106.7 -19.5C-102.9 -45.3 -91.6 -70.6 -72.6 -86C-53.6 -101.5 -26.8 -107.3 0.5 -107.9C27.9 -108.5 55.7 -104.1 78.7 -89.3" fill="#715DF2"></path></g></svg>