<svg id="visual" viewBox="0 0 900 600" width="900" height="600" xmlns="http://www.w3.org/2000/svg" xmlns:xlink="http://www.w3.org/1999/xlink" version="1.1"><rect x="0" y="0" width="900" height="600" fill="#715DF2"></rect><path d="M0 401L21.5 420.2C43 439.3 86 477.7 128.8 494.2C171.7 510.7 214.3 505.3 257.2 491.7C300 478 343 456 385.8 449.3C428.7 442.7 471.3 451.3 514.2 444.8C557 438.3 600 416.7 642.8 425.8C685.7 435 728.3 475 771.2 486.5C814 498 857 481 878.5 472.5L900 464L900 601L878.5 601C857 601 814 601 771.2 601C728.3 601 685.7 601 642.8 601C600 601 557 601 514.2 601C471.3 601 428.7 601 385.8 601C343 601 300 601 257.2 601C214.3 601 171.7 601 128.8 601C86 601 43 601 21.5 601L0 601Z" fill="#6600FF" stroke-linecap="round" stroke-linejoin="miter"></path></svg>